# Blender v2.80 (sub 75) OBJ File: 'PlayerShip.blend'
# www.blender.org
mtllib PlayerShip.mtl
o Left_Engine_Cylinder.002
v -0.675710 -0.000000 1.705138
v -0.605110 -0.000000 1.295051
v -0.670411 -0.053804 1.705136
v -0.601170 -0.039999 1.295050
v -0.654717 -0.105541 1.705130
v -0.589503 -0.078461 1.295045
v -0.629231 -0.153221 1.705120
v -0.570556 -0.113908 1.295038
v -0.594933 -0.195014 1.705106
v -0.545058 -0.144978 1.295028
v -0.553141 -0.229312 1.705090
v -0.513989 -0.170476 1.295015
v -0.505460 -0.254798 1.705071
v -0.478542 -0.189422 1.295002
v -0.453724 -0.270492 1.705051
v -0.440080 -0.201090 1.294986
v -0.399919 -0.275791 1.705029
v -0.400081 -0.205029 1.294971
v -0.346115 -0.270492 1.705008
v -0.360081 -0.201090 1.294955
v -0.294379 -0.254798 1.704988
v -0.321619 -0.189422 1.294940
v -0.246698 -0.229312 1.704969
v -0.286172 -0.170476 1.294926
v -0.204906 -0.195014 1.704953
v -0.255103 -0.144978 1.294914
v -0.170608 -0.153221 1.704939
v -0.229605 -0.113908 1.294904
v -0.145122 -0.105541 1.704929
v -0.210658 -0.078461 1.294896
v -0.129428 -0.053804 1.704923
v -0.198991 -0.039999 1.294892
v -0.124128 0.000000 1.704921
v -0.195051 0.000000 1.294890
v -0.129428 0.053804 1.704923
v -0.198991 0.039999 1.294892
v -0.145122 0.105541 1.704929
v -0.210658 0.078461 1.294896
v -0.170608 0.153221 1.704939
v -0.229605 0.113908 1.294904
v -0.204906 0.195014 1.704953
v -0.255103 0.144978 1.294914
v -0.246698 0.229312 1.704969
v -0.286173 0.170476 1.294926
v -0.294379 0.254798 1.704988
v -0.321619 0.189422 1.294940
v -0.346116 0.270492 1.705008
v -0.360081 0.201090 1.294955
v -0.399920 0.275791 1.705029
v -0.400081 0.205029 1.294971
v -0.453724 0.270492 1.705051
v -0.440080 0.201090 1.294986
v -0.505460 0.254798 1.705071
v -0.478542 0.189422 1.295002
v -0.553141 0.229312 1.705090
v -0.513989 0.170475 1.295015
v -0.594933 0.195013 1.705106
v -0.545058 0.144977 1.295028
v -0.629232 0.153221 1.705120
v -0.570556 0.113908 1.295038
v -0.654717 0.105540 1.705130
v -0.589503 0.078461 1.295045
v -0.670411 0.053804 1.705136
v -0.601170 0.039999 1.295050
vt 1.000000 0.500000
vt 1.000000 1.000000
vt 0.968750 1.000000
vt 0.968750 0.500000
vt 0.937500 1.000000
vt 0.937500 0.500000
vt 0.906250 1.000000
vt 0.906250 0.500000
vt 0.875000 1.000000
vt 0.875000 0.500000
vt 0.843750 1.000000
vt 0.843750 0.500000
vt 0.812500 1.000000
vt 0.812500 0.500000
vt 0.781250 1.000000
vt 0.781250 0.500000
vt 0.750000 1.000000
vt 0.750000 0.500000
vt 0.718750 1.000000
vt 0.718750 0.500000
vt 0.687500 1.000000
vt 0.687500 0.500000
vt 0.656250 1.000000
vt 0.656250 0.500000
vt 0.625000 1.000000
vt 0.625000 0.500000
vt 0.593750 1.000000
vt 0.593750 0.500000
vt 0.562500 1.000000
vt 0.562500 0.500000
vt 0.531250 1.000000
vt 0.531250 0.500000
vt 0.500000 1.000000
vt 0.500000 0.500000
vt 0.468750 1.000000
vt 0.468750 0.500000
vt 0.437500 1.000000
vt 0.437500 0.500000
vt 0.406250 1.000000
vt 0.406250 0.500000
vt 0.375000 1.000000
vt 0.375000 0.500000
vt 0.343750 1.000000
vt 0.343750 0.500000
vt 0.312500 1.000000
vt 0.312500 0.500000
vt 0.281250 1.000000
vt 0.281250 0.500000
vt 0.250000 1.000000
vt 0.250000 0.500000
vt 0.218750 1.000000
vt 0.218750 0.500000
vt 0.187500 1.000000
vt 0.187500 0.500000
vt 0.156250 1.000000
vt 0.156250 0.500000
vt 0.125000 1.000000
vt 0.125000 0.500000
vt 0.093750 1.000000
vt 0.093750 0.500000
vt 0.062500 1.000000
vt 0.062500 0.500000
vt 0.296822 0.485388
vt 0.250000 0.490000
vt 0.203179 0.485389
vt 0.158156 0.471731
vt 0.116663 0.449553
vt 0.080295 0.419706
vt 0.050447 0.383337
vt 0.028269 0.341844
vt 0.014612 0.296822
vt 0.010000 0.250000
vt 0.014611 0.203179
vt 0.028269 0.158156
vt 0.050447 0.116663
vt 0.080294 0.080294
vt 0.116663 0.050447
vt 0.158156 0.028269
vt 0.203178 0.014612
vt 0.250000 0.010000
vt 0.296822 0.014612
vt 0.341844 0.028269
vt 0.383337 0.050447
vt 0.419706 0.080294
vt 0.449553 0.116663
vt 0.471731 0.158156
vt 0.485388 0.203178
vt 0.490000 0.250000
vt 0.485388 0.296822
vt 0.471731 0.341844
vt 0.449553 0.383337
vt 0.419706 0.419706
vt 0.383337 0.449553
vt 0.341844 0.471731
vt 0.031250 1.000000
vt 0.031250 0.500000
vt 0.000000 1.000000
vt 0.000000 0.500000
vt 0.750000 0.490000
vt 0.796822 0.485388
vt 0.841844 0.471731
vt 0.883337 0.449553
vt 0.919706 0.419706
vt 0.949553 0.383337
vt 0.971731 0.341844
vt 0.985388 0.296822
vt 0.990000 0.250000
vt 0.985388 0.203178
vt 0.971731 0.158156
vt 0.949553 0.116663
vt 0.919706 0.080294
vt 0.883337 0.050447
vt 0.841844 0.028269
vt 0.796822 0.014612
vt 0.750000 0.010000
vt 0.703178 0.014612
vt 0.658156 0.028269
vt 0.616663 0.050447
vt 0.580294 0.080294
vt 0.550447 0.116663
vt 0.528269 0.158156
vt 0.514611 0.203179
vt 0.510000 0.250000
vt 0.514612 0.296822
vt 0.528269 0.341844
vt 0.550447 0.383337
vt 0.580295 0.419706
vt 0.616663 0.449553
vt 0.658156 0.471731
vt 0.703179 0.485389
vn -0.9809 -0.0966 -0.1689
vn -0.9432 -0.2861 -0.1689
vn -0.8693 -0.4646 -0.1689
vn -0.7619 -0.6252 -0.1690
vn -0.6253 -0.7619 -0.1690
vn -0.4647 -0.8692 -0.1691
vn -0.2862 -0.9431 -0.1691
vn -0.0967 -0.9808 -0.1692
vn 0.0965 -0.9808 -0.1693
vn 0.2860 -0.9431 -0.1694
vn 0.4645 -0.8692 -0.1694
vn 0.6252 -0.7619 -0.1695
vn 0.7618 -0.6252 -0.1696
vn 0.8691 -0.4646 -0.1696
vn 0.9431 -0.2861 -0.1696
vn 0.9808 -0.0966 -0.1696
vn 0.9808 0.0966 -0.1696
vn 0.9431 0.2861 -0.1696
vn 0.8691 0.4646 -0.1696
vn 0.7618 0.6252 -0.1696
vn 0.6252 0.7619 -0.1695
vn 0.4645 0.8692 -0.1694
vn 0.2860 0.9431 -0.1694
vn 0.0965 0.9808 -0.1693
vn -0.0967 0.9808 -0.1692
vn -0.2862 0.9431 -0.1691
vn -0.4647 0.8692 -0.1691
vn -0.6253 0.7619 -0.1690
vn -0.7619 0.6252 -0.1690
vn -0.8693 0.4646 -0.1689
vn -0.0004 -0.0000 -1.0000
vn -0.9432 0.2861 -0.1689
vn -0.9809 0.0966 -0.1689
vn 0.0004 0.0000 1.0000
usemtl None
s off
f 1/1/1 2/2/1 4/3/1 3/4/1
f 3/4/2 4/3/2 6/5/2 5/6/2
f 5/6/3 6/5/3 8/7/3 7/8/3
f 7/8/4 8/7/4 10/9/4 9/10/4
f 9/10/5 10/9/5 12/11/5 11/12/5
f 11/12/6 12/11/6 14/13/6 13/14/6
f 13/14/7 14/13/7 16/15/7 15/16/7
f 15/16/8 16/15/8 18/17/8 17/18/8
f 17/18/9 18/17/9 20/19/9 19/20/9
f 19/20/10 20/19/10 22/21/10 21/22/10
f 21/22/11 22/21/11 24/23/11 23/24/11
f 23/24/12 24/23/12 26/25/12 25/26/12
f 25/26/13 26/25/13 28/27/13 27/28/13
f 27/28/14 28/27/14 30/29/14 29/30/14
f 29/30/15 30/29/15 32/31/15 31/32/15
f 31/32/16 32/31/16 34/33/16 33/34/16
f 33/34/17 34/33/17 36/35/17 35/36/17
f 35/36/18 36/35/18 38/37/18 37/38/18
f 37/38/19 38/37/19 40/39/19 39/40/19
f 39/40/20 40/39/20 42/41/20 41/42/20
f 41/42/21 42/41/21 44/43/21 43/44/21
f 43/44/22 44/43/22 46/45/22 45/46/22
f 45/46/23 46/45/23 48/47/23 47/48/23
f 47/48/24 48/47/24 50/49/24 49/50/24
f 49/50/25 50/49/25 52/51/25 51/52/25
f 51/52/26 52/51/26 54/53/26 53/54/26
f 53/54/27 54/53/27 56/55/27 55/56/27
f 55/56/28 56/55/28 58/57/28 57/58/28
f 57/58/29 58/57/29 60/59/29 59/60/29
f 59/60/30 60/59/30 62/61/30 61/62/30
f 4/63/31 2/64/31 64/65/31 62/66/31 60/67/31 58/68/31 56/69/31 54/70/31 52/71/31 50/72/31 48/73/31 46/74/31 44/75/31 42/76/31 40/77/31 38/78/31 36/79/31 34/80/31 32/81/31 30/82/31 28/83/31 26/84/31 24/85/31 22/86/31 20/87/31 18/88/31 16/89/31 14/90/31 12/91/31 10/92/31 8/93/31 6/94/31
f 61/62/32 62/61/32 64/95/32 63/96/32
f 63/96/33 64/95/33 2/97/33 1/98/33
f 1/99/34 3/100/34 5/101/34 7/102/34 9/103/34 11/104/34 13/105/34 15/106/34 17/107/34 19/108/34 21/109/34 23/110/34 25/111/34 27/112/34 29/113/34 31/114/34 33/115/34 35/116/34 37/117/34 39/118/34 41/119/34 43/120/34 45/121/34 47/122/34 49/123/34 51/124/34 53/125/34 55/126/34 57/127/34 59/128/34 61/129/34 63/130/34
o Right_Engine_Cylinder.001
v 0.124290 -0.000000 1.705138
v 0.194890 -0.000000 1.295051
v 0.129589 -0.053804 1.705136
v 0.198830 -0.039999 1.295050
v 0.145283 -0.105541 1.705130
v 0.210497 -0.078461 1.295045
v 0.170769 -0.153221 1.705120
v 0.229444 -0.113908 1.295038
v 0.205067 -0.195014 1.705106
v 0.254942 -0.144978 1.295028
v 0.246859 -0.229312 1.705090
v 0.286011 -0.170476 1.295015
v 0.294540 -0.254798 1.705071
v 0.321458 -0.189422 1.295002
v 0.346276 -0.270492 1.705051
v 0.359920 -0.201090 1.294986
v 0.400081 -0.275791 1.705029
v 0.399919 -0.205029 1.294971
v 0.453885 -0.270492 1.705008
v 0.439919 -0.201090 1.294955
v 0.505621 -0.254798 1.704988
v 0.478381 -0.189422 1.294940
v 0.553302 -0.229312 1.704969
v 0.513828 -0.170476 1.294926
v 0.595094 -0.195014 1.704953
v 0.544897 -0.144978 1.294914
v 0.629392 -0.153221 1.704939
v 0.570395 -0.113908 1.294904
v 0.654878 -0.105541 1.704929
v 0.589342 -0.078461 1.294896
v 0.670572 -0.053804 1.704923
v 0.601009 -0.039999 1.294892
v 0.675871 0.000000 1.704921
v 0.604949 0.000000 1.294890
v 0.670572 0.053804 1.704923
v 0.601009 0.039999 1.294892
v 0.654878 0.105541 1.704929
v 0.589342 0.078461 1.294896
v 0.629392 0.153221 1.704939
v 0.570395 0.113908 1.294904
v 0.595094 0.195014 1.704953
v 0.544897 0.144978 1.294914
v 0.553302 0.229312 1.704969
v 0.513828 0.170476 1.294926
v 0.505621 0.254798 1.704988
v 0.478381 0.189422 1.294940
v 0.453884 0.270492 1.705008
v 0.439919 0.201090 1.294955
v 0.400080 0.275791 1.705029
v 0.399919 0.205029 1.294971
v 0.346276 0.270492 1.705051
v 0.359920 0.201090 1.294986
v 0.294540 0.254798 1.705071
v 0.321458 0.189422 1.295002
v 0.246859 0.229312 1.705090
v 0.286011 0.170475 1.295015
v 0.205067 0.195013 1.705106
v 0.254942 0.144977 1.295028
v 0.170768 0.153221 1.705120
v 0.229444 0.113908 1.295038
v 0.145283 0.105540 1.705130
v 0.210497 0.078461 1.295045
v 0.129589 0.053804 1.705136
v 0.198830 0.039999 1.295050
vt 1.000000 0.500000
vt 1.000000 1.000000
vt 0.968750 1.000000
vt 0.968750 0.500000
vt 0.937500 1.000000
vt 0.937500 0.500000
vt 0.906250 1.000000
vt 0.906250 0.500000
vt 0.875000 1.000000
vt 0.875000 0.500000
vt 0.843750 1.000000
vt 0.843750 0.500000
vt 0.812500 1.000000
vt 0.812500 0.500000
vt 0.781250 1.000000
vt 0.781250 0.500000
vt 0.750000 1.000000
vt 0.750000 0.500000
vt 0.718750 1.000000
vt 0.718750 0.500000
vt 0.687500 1.000000
vt 0.687500 0.500000
vt 0.656250 1.000000
vt 0.656250 0.500000
vt 0.625000 1.000000
vt 0.625000 0.500000
vt 0.593750 1.000000
vt 0.593750 0.500000
vt 0.562500 1.000000
vt 0.562500 0.500000
vt 0.531250 1.000000
vt 0.531250 0.500000
vt 0.500000 1.000000
vt 0.500000 0.500000
vt 0.468750 1.000000
vt 0.468750 0.500000
vt 0.437500 1.000000
vt 0.437500 0.500000
vt 0.406250 1.000000
vt 0.406250 0.500000
vt 0.375000 1.000000
vt 0.375000 0.500000
vt 0.343750 1.000000
vt 0.343750 0.500000
vt 0.312500 1.000000
vt 0.312500 0.500000
vt 0.281250 1.000000
vt 0.281250 0.500000
vt 0.250000 1.000000
vt 0.250000 0.500000
vt 0.218750 1.000000
vt 0.218750 0.500000
vt 0.187500 1.000000
vt 0.187500 0.500000
vt 0.156250 1.000000
vt 0.156250 0.500000
vt 0.125000 1.000000
vt 0.125000 0.500000
vt 0.093750 1.000000
vt 0.093750 0.500000
vt 0.062500 1.000000
vt 0.062500 0.500000
vt 0.296822 0.485388
vt 0.250000 0.490000
vt 0.203179 0.485389
vt 0.158156 0.471731
vt 0.116663 0.449553
vt 0.080295 0.419706
vt 0.050447 0.383337
vt 0.028269 0.341844
vt 0.014612 0.296822
vt 0.010000 0.250000
vt 0.014611 0.203179
vt 0.028269 0.158156
vt 0.050447 0.116663
vt 0.080294 0.080294
vt 0.116663 0.050447
vt 0.158156 0.028269
vt 0.203178 0.014612
vt 0.250000 0.010000
vt 0.296822 0.014612
vt 0.341844 0.028269
vt 0.383337 0.050447
vt 0.419706 0.080294
vt 0.449553 0.116663
vt 0.471731 0.158156
vt 0.485388 0.203178
vt 0.490000 0.250000
vt 0.485388 0.296822
vt 0.471731 0.341844
vt 0.449553 0.383337
vt 0.419706 0.419706
vt 0.383337 0.449553
vt 0.341844 0.471731
vt 0.031250 1.000000
vt 0.031250 0.500000
vt 0.000000 1.000000
vt 0.000000 0.500000
vt 0.750000 0.490000
vt 0.796822 0.485388
vt 0.841844 0.471731
vt 0.883337 0.449553
vt 0.919706 0.419706
vt 0.949553 0.383337
vt 0.971731 0.341844
vt 0.985388 0.296822
vt 0.990000 0.250000
vt 0.985388 0.203178
vt 0.971731 0.158156
vt 0.949553 0.116663
vt 0.919706 0.080294
vt 0.883337 0.050447
vt 0.841844 0.028269
vt 0.796822 0.014612
vt 0.750000 0.010000
vt 0.703178 0.014612
vt 0.658156 0.028269
vt 0.616663 0.050447
vt 0.580294 0.080294
vt 0.550447 0.116663
vt 0.528269 0.158156
vt 0.514611 0.203179
vt 0.510000 0.250000
vt 0.514612 0.296822
vt 0.528269 0.341844
vt 0.550447 0.383337
vt 0.580295 0.419706
vt 0.616663 0.449553
vt 0.658156 0.471731
vt 0.703179 0.485389
vn -0.9809 -0.0966 -0.1689
vn -0.9432 -0.2861 -0.1689
vn -0.8693 -0.4646 -0.1689
vn -0.7619 -0.6252 -0.1690
vn -0.6253 -0.7619 -0.1690
vn -0.4647 -0.8692 -0.1691
vn -0.2862 -0.9431 -0.1691
vn -0.0967 -0.9808 -0.1692
vn 0.0965 -0.9808 -0.1693
vn 0.2860 -0.9431 -0.1694
vn 0.4645 -0.8692 -0.1694
vn 0.6252 -0.7619 -0.1695
vn 0.7618 -0.6252 -0.1696
vn 0.8691 -0.4646 -0.1696
vn 0.9431 -0.2861 -0.1696
vn 0.9808 -0.0966 -0.1696
vn 0.9808 0.0966 -0.1696
vn 0.9431 0.2861 -0.1696
vn 0.8691 0.4646 -0.1696
vn 0.7618 0.6252 -0.1696
vn 0.6252 0.7619 -0.1695
vn 0.4645 0.8692 -0.1694
vn 0.2860 0.9431 -0.1694
vn 0.0965 0.9808 -0.1693
vn -0.0967 0.9808 -0.1692
vn -0.2862 0.9431 -0.1691
vn -0.4647 0.8692 -0.1691
vn -0.6253 0.7619 -0.1690
vn -0.7619 0.6252 -0.1690
vn -0.8693 0.4646 -0.1689
vn -0.0004 -0.0000 -1.0000
vn -0.9432 0.2861 -0.1689
vn -0.9809 0.0966 -0.1689
vn 0.0004 0.0000 1.0000
usemtl None
s off
f 65/131/35 66/132/35 68/133/35 67/134/35
f 67/134/36 68/133/36 70/135/36 69/136/36
f 69/136/37 70/135/37 72/137/37 71/138/37
f 71/138/38 72/137/38 74/139/38 73/140/38
f 73/140/39 74/139/39 76/141/39 75/142/39
f 75/142/40 76/141/40 78/143/40 77/144/40
f 77/144/41 78/143/41 80/145/41 79/146/41
f 79/146/42 80/145/42 82/147/42 81/148/42
f 81/148/43 82/147/43 84/149/43 83/150/43
f 83/150/44 84/149/44 86/151/44 85/152/44
f 85/152/45 86/151/45 88/153/45 87/154/45
f 87/154/46 88/153/46 90/155/46 89/156/46
f 89/156/47 90/155/47 92/157/47 91/158/47
f 91/158/48 92/157/48 94/159/48 93/160/48
f 93/160/49 94/159/49 96/161/49 95/162/49
f 95/162/50 96/161/50 98/163/50 97/164/50
f 97/164/51 98/163/51 100/165/51 99/166/51
f 99/166/52 100/165/52 102/167/52 101/168/52
f 101/168/53 102/167/53 104/169/53 103/170/53
f 103/170/54 104/169/54 106/171/54 105/172/54
f 105/172/55 106/171/55 108/173/55 107/174/55
f 107/174/56 108/173/56 110/175/56 109/176/56
f 109/176/57 110/175/57 112/177/57 111/178/57
f 111/178/58 112/177/58 114/179/58 113/180/58
f 113/180/59 114/179/59 116/181/59 115/182/59
f 115/182/60 116/181/60 118/183/60 117/184/60
f 117/184/61 118/183/61 120/185/61 119/186/61
f 119/186/62 120/185/62 122/187/62 121/188/62
f 121/188/63 122/187/63 124/189/63 123/190/63
f 123/190/64 124/189/64 126/191/64 125/192/64
f 68/193/65 66/194/65 128/195/65 126/196/65 124/197/65 122/198/65 120/199/65 118/200/65 116/201/65 114/202/65 112/203/65 110/204/65 108/205/65 106/206/65 104/207/65 102/208/65 100/209/65 98/210/65 96/211/65 94/212/65 92/213/65 90/214/65 88/215/65 86/216/65 84/217/65 82/218/65 80/219/65 78/220/65 76/221/65 74/222/65 72/223/65 70/224/65
f 125/192/66 126/191/66 128/225/66 127/226/66
f 127/226/67 128/225/67 66/227/67 65/228/67
f 65/229/68 67/230/68 69/231/68 71/232/68 73/233/68 75/234/68 77/235/68 79/236/68 81/237/68 83/238/68 85/239/68 87/240/68 89/241/68 91/242/68 93/243/68 95/244/68 97/245/68 99/246/68 101/247/68 103/248/68 105/249/68 107/250/68 109/251/68 111/252/68 113/253/68 115/254/68 117/255/68 119/256/68 121/257/68 123/258/68 125/259/68 127/260/68
o Ship_Body_Cube.001
v -1.710754 -0.368031 1.208637
v -1.710754 0.250650 1.208637
v -0.001344 -0.368031 -3.422638
v -0.001344 0.250650 -3.422638
v -1.712083 -0.368031 0.697957
v -1.712083 0.250650 0.697957
v -0.835312 -0.368031 1.562694
v -0.835312 0.250650 1.562694
v -0.833040 -0.368031 -0.086371
v -0.833040 0.250650 -0.086371
v -1.710754 0.129954 1.208637
v -1.710754 -0.247335 1.208637
v -1.712083 -0.247335 0.697957
v -1.712083 0.129954 0.697957
v -0.833040 -0.247335 -0.086371
v -0.833040 0.129954 -0.086371
v -0.001344 0.129954 -3.422638
v -0.001344 -0.247335 -3.422638
v -1.786040 -0.368031 0.697986
v -1.784711 -0.368031 1.208666
v -1.784711 0.250650 1.208666
v -1.786040 0.250650 0.697986
v -0.075301 0.129954 -3.422609
v -0.075301 0.250650 -3.422609
v -0.906997 -0.368031 -0.086342
v -0.906997 0.250650 -0.086342
v -0.075301 -0.368031 -3.422609
v -0.075301 -0.247335 -3.422609
v -1.786040 -0.247335 0.697986
v -1.784711 -0.247335 1.208666
v -1.784711 0.129954 1.208666
v -1.786040 0.129954 0.697986
v -0.906997 -0.247335 -0.086342
v -0.906997 0.129954 -0.086342
v 0.000577 -0.368031 1.470484
v 0.000539 0.680609 1.373003
v 1.711703 -0.368031 1.207293
v 1.711703 0.250650 1.207293
v 1.712631 -0.368031 0.696612
v 1.712631 0.250650 0.696612
v 0.836539 -0.368031 1.562038
v 0.836539 0.250650 1.562038
v 0.832972 -0.368031 -0.087025
v 0.832972 0.250650 -0.087025
v 1.711703 0.129954 1.207293
v 1.711703 -0.247335 1.207293
v 1.712631 -0.247335 0.696612
v 1.712631 0.129954 0.696612
v 0.832972 -0.247335 -0.087025
v 0.832972 0.129954 -0.087025
v 1.786588 -0.368031 0.696583
v 1.785660 -0.368031 1.207264
v 1.785660 0.250650 1.207264
v 1.786588 0.250650 0.696583
v 0.072613 0.129954 -3.422667
v 0.072613 0.250650 -3.422667
v 0.906929 -0.368031 -0.087054
v 0.906929 0.250650 -0.087054
v 0.072613 -0.368031 -3.422667
v 0.072613 -0.247335 -3.422667
v 1.786588 -0.247335 0.696583
v 1.785660 -0.247335 1.207264
v 1.785660 0.129954 1.207264
v 1.786588 0.129954 0.696583
v 0.906929 -0.247335 -0.087054
v 0.906929 0.129954 -0.087054
vt 0.375000 0.125000
vt 0.625000 0.125000
vt 0.625000 0.250000
vt 0.375000 0.250000
vt 0.375000 0.500000
vt 0.375000 0.625000
vt 0.375000 0.625000
vt 0.375000 0.500000
vt 0.625000 0.625000
vt 0.625000 0.750000
vt 0.625000 0.750000
vt 0.625000 0.625000
vt 0.125000 0.625000
vt 0.375000 0.625000
vt 0.375000 0.750000
vt 0.125000 0.750000
vt 0.875000 0.625000
vt 0.875000 0.750000
vt 0.625000 0.500000
vt 0.875000 0.500000
vt 0.125000 0.500000
vt 0.375000 0.500000
vt 0.375000 0.750000
vt 0.625000 0.750000
vt 0.375000 0.000000
vt 0.625000 0.000000
vt 0.375000 0.250000
vt 0.625000 0.250000
vt 0.625000 0.500000
vt 0.625000 0.625000
vt 0.625000 0.500000
vt 0.625000 0.250000
vt 0.625000 0.500000
vt 0.375000 0.500000
vt 0.375000 0.625000
vt 0.375000 0.750000
vt 0.875000 0.500000
vt 0.875000 0.500000
vt 0.375000 0.750000
vt 0.625000 0.750000
vt 0.625000 0.625000
vt 0.125000 0.500000
vt 0.125000 0.500000
vt 0.625000 0.250000
vt 0.375000 0.250000
vt 0.375000 0.250000
vt 0.375000 0.125000
vt 0.375000 0.250000
vt 0.625000 0.250000
vt 0.625000 0.125000
vt 0.375000 0.500000
vt 0.375000 0.500000
vt 0.375000 0.625000
vt 0.375000 0.625000
vt 0.625000 0.625000
vt 0.625000 0.625000
vt 0.625000 0.750000
vt 0.125000 0.625000
vt 0.375000 0.625000
vt 0.875000 0.625000
vt 0.625000 0.500000
vt 0.875000 0.500000
vt 0.125000 0.500000
vt 0.375000 0.500000
vt 0.375000 0.250000
vt 0.625000 0.500000
vt 0.625000 0.250000
vt 0.625000 0.625000
vt 0.625000 0.500000
vt 0.625000 0.500000
vt 0.625000 0.250000
vt 0.375000 0.625000
vt 0.375000 0.500000
vt 0.375000 0.750000
vt 0.875000 0.500000
vt 0.875000 0.500000
vt 0.375000 0.750000
vt 0.625000 0.625000
vt 0.625000 0.750000
vt 0.125000 0.500000
vt 0.125000 0.500000
vt 0.625000 0.250000
vt 0.375000 0.250000
vt 0.375000 0.250000
vn -0.3749 0.0000 0.9271
vn 0.0000 1.0000 0.0000
vn 0.0000 -1.0000 0.0000
vn -0.3698 0.9270 -0.0619
vn -1.0000 0.0000 0.0000
vn 0.1516 0.0577 0.9868
vn -1.0000 0.0000 0.0026
vn -0.9703 0.0000 -0.2419
vn -0.6658 0.0000 -0.7462
vn 0.0000 0.0000 1.0000
vn -0.0004 0.0000 -1.0000
vn 0.0004 0.0000 1.0000
vn 0.3757 0.0000 0.9268
vn 0.3698 0.9270 -0.0622
vn -0.1508 0.0577 0.9869
vn 1.0000 0.0000 0.0018
vn 0.9701 0.0000 -0.2426
vn 0.6652 0.0000 -0.7467
usemtl None
s off
f 135/261/69 136/262/69 130/263/69 129/264/69
f 141/265/70 143/266/70 161/267/70 157/268/70
f 138/269/70 132/270/70 152/271/70 154/272/70
f 135/273/71 137/274/71 131/275/71 163/276/71
f 138/269/72 136/277/72 164/278/72 132/270/72
f 134/279/70 130/280/70 136/277/70 138/269/70
f 129/281/71 133/282/71 137/274/71 135/273/71
f 132/270/73 131/275/73 146/283/73 145/284/73
f 163/285/74 164/286/74 136/262/74 135/261/74
f 140/287/75 139/288/75 142/289/75 141/265/75
f 143/266/76 144/290/76 145/284/76 146/283/76
f 141/265/77 142/289/77 144/290/77 143/266/77
f 134/279/70 138/269/70 154/272/70 150/291/70
f 129/264/78 130/263/78 139/288/78 140/287/78
f 142/289/71 139/288/71 159/292/71 160/293/71
f 137/274/71 133/282/71 147/294/71 153/295/71
f 131/275/71 137/274/71 153/295/71 155/296/71
f 149/297/75 150/291/75 160/293/75 159/298/75
f 153/295/77 147/294/77 157/268/77 161/267/77
f 155/296/76 153/295/76 161/267/76 156/299/76
f 154/272/76 152/271/76 151/300/76 162/301/76
f 150/291/77 154/272/77 162/301/77 160/293/77
f 147/294/75 148/302/75 158/303/75 157/268/75
f 145/284/71 144/290/71 162/301/71 151/300/71
f 146/283/79 131/275/79 155/296/79 156/299/79
f 139/288/80 130/263/80 149/304/80 159/292/80
f 133/282/71 129/281/71 148/302/71 147/294/71
f 129/264/80 140/287/80 158/305/80 148/306/80
f 143/266/70 146/283/70 156/299/70 161/267/70
f 130/280/70 134/279/70 150/291/70 149/297/70
f 144/290/71 142/289/71 160/293/71 162/301/71
f 132/270/79 145/284/79 151/300/79 152/271/79
f 140/287/70 141/265/70 157/268/70 158/305/70
f 169/307/81 165/308/81 166/309/81 170/310/81
f 175/311/70 189/312/70 193/313/70 177/314/70
f 172/315/70 186/316/70 184/317/70 132/270/70
f 169/318/71 163/276/71 131/275/71 171/319/71
f 172/315/82 132/270/82 164/278/82 170/320/82
f 168/321/70 172/315/70 170/320/70 166/322/70
f 165/323/71 169/318/71 171/319/71 167/324/71
f 163/285/83 169/307/83 170/310/83 164/286/83
f 174/325/84 175/311/84 176/326/84 173/327/84
f 177/314/85 146/283/85 145/284/85 178/328/85
f 175/311/86 177/314/86 178/328/86 176/326/86
f 168/321/70 182/329/70 186/316/70 172/315/70
f 165/308/73 174/325/73 173/327/73 166/309/73
f 176/326/71 192/330/71 191/331/71 173/327/71
f 171/319/71 185/332/71 179/333/71 167/324/71
f 131/275/71 187/334/71 185/332/71 171/319/71
f 181/335/84 191/336/84 192/330/84 182/329/84
f 185/332/86 193/313/86 189/312/86 179/333/86
f 187/334/85 188/337/85 193/313/85 185/332/85
f 186/316/85 194/338/85 183/339/85 184/317/85
f 182/329/86 192/330/86 194/338/86 186/316/86
f 179/333/84 189/312/84 190/340/84 180/341/84
f 145/284/71 183/339/71 194/338/71 178/328/71
f 146/283/79 188/337/79 187/334/79 131/275/79
f 173/327/80 191/331/80 181/342/80 166/309/80
f 167/324/71 179/333/71 180/341/71 165/323/71
f 165/308/80 180/343/80 190/344/80 174/325/80
f 177/314/70 193/313/70 188/337/70 146/283/70
f 166/322/70 181/335/70 182/329/70 168/321/70
f 178/328/71 194/338/71 192/330/71 176/326/71
f 132/270/79 184/317/79 183/339/79 145/284/79
f 174/325/70 190/344/70 189/312/70 175/311/70
