# Blender v2.80 (sub 75) OBJ File: 'PlayerShip.blend'
# www.blender.org
mtllib PlayerShip.mtl
o Ship_Body_Cube.001
v -1.207965 1.711229 -0.368031
v -1.207965 1.711229 0.250650
v 3.422638 0.000000 -0.368031
v 3.422638 0.000000 0.250650
v -0.697285 1.712357 -0.368031
v -0.697285 1.712357 0.250650
v -1.562366 0.835926 -0.368031
v -1.562366 0.835926 0.250650
v 0.086698 0.833006 -0.368031
v 0.086698 0.833006 0.250650
v -1.207965 1.711229 0.129954
v -1.207965 1.711229 -0.247335
v -0.697285 1.712357 -0.247335
v -0.697285 1.712357 0.129954
v 0.086698 0.833006 -0.247335
v 0.086698 0.833006 0.129954
v 3.422638 0.000000 0.129954
v 3.422638 0.000000 -0.247335
v -0.697285 1.786314 -0.368031
v -1.207965 1.785186 -0.368031
v -1.207965 1.785186 0.250650
v -0.697285 1.786314 0.250650
v 3.422638 0.073957 0.129954
v 3.422638 0.073957 0.250650
v 0.086698 0.906963 -0.368031
v 0.086698 0.906963 0.250650
v 3.422638 0.073957 -0.368031
v 3.422638 0.073957 -0.247335
v -0.697285 1.786314 -0.247335
v -1.207965 1.785186 -0.247335
v -1.207965 1.785186 0.129954
v -0.697285 1.786314 0.129954
v 0.086698 0.906963 -0.247335
v 0.086698 0.906963 0.129954
v -1.470484 0.000000 -0.368031
v -1.373003 0.000000 0.680609
v -1.207965 -1.711229 -0.368031
v -1.207965 -1.711229 0.250650
v -0.697285 -1.712357 -0.368031
v -0.697285 -1.712357 0.250650
v -1.562366 -0.835925 -0.368031
v -1.562366 -0.835925 0.250650
v 0.086698 -0.833006 -0.368031
v 0.086698 -0.833006 0.250650
v -1.207965 -1.711229 0.129954
v -1.207965 -1.711229 -0.247335
v -0.697285 -1.712357 -0.247335
v -0.697285 -1.712357 0.129954
v 0.086698 -0.833006 -0.247335
v 0.086698 -0.833006 0.129954
v -0.697285 -1.786314 -0.368031
v -1.207965 -1.785186 -0.368031
v -1.207965 -1.785186 0.250650
v -0.697285 -1.786314 0.250650
v 3.422638 -0.073957 0.129954
v 3.422638 -0.073957 0.250650
v 0.086698 -0.906963 -0.368031
v 0.086698 -0.906963 0.250650
v 3.422638 -0.073957 -0.368031
v 3.422638 -0.073957 -0.247335
v -0.697285 -1.786314 -0.247335
v -1.207965 -1.785186 -0.247335
v -1.207965 -1.785186 0.129954
v -0.697285 -1.786314 0.129954
v 0.086698 -0.906963 -0.247335
v 0.086698 -0.906963 0.129954
vt 0.375000 0.125000
vt 0.625000 0.125000
vt 0.625000 0.250000
vt 0.375000 0.250000
vt 0.375000 0.500000
vt 0.375000 0.625000
vt 0.375000 0.625000
vt 0.375000 0.500000
vt 0.625000 0.625000
vt 0.625000 0.750000
vt 0.625000 0.750000
vt 0.625000 0.625000
vt 0.125000 0.625000
vt 0.375000 0.625000
vt 0.375000 0.750000
vt 0.125000 0.750000
vt 0.875000 0.625000
vt 0.875000 0.750000
vt 0.625000 0.500000
vt 0.875000 0.500000
vt 0.125000 0.500000
vt 0.375000 0.500000
vt 0.375000 0.750000
vt 0.625000 0.750000
vt 0.375000 0.000000
vt 0.625000 0.000000
vt 0.375000 0.250000
vt 0.625000 0.250000
vt 0.625000 0.500000
vt 0.625000 0.625000
vt 0.625000 0.500000
vt 0.625000 0.250000
vt 0.625000 0.500000
vt 0.375000 0.500000
vt 0.375000 0.625000
vt 0.375000 0.750000
vt 0.875000 0.500000
vt 0.875000 0.500000
vt 0.375000 0.750000
vt 0.625000 0.750000
vt 0.625000 0.625000
vt 0.125000 0.500000
vt 0.125000 0.500000
vt 0.625000 0.250000
vt 0.375000 0.250000
vt 0.375000 0.250000
vt 0.375000 0.125000
vt 0.375000 0.250000
vt 0.625000 0.250000
vt 0.625000 0.125000
vt 0.375000 0.500000
vt 0.375000 0.500000
vt 0.375000 0.625000
vt 0.375000 0.625000
vt 0.625000 0.625000
vt 0.625000 0.625000
vt 0.625000 0.750000
vt 0.125000 0.625000
vt 0.375000 0.625000
vt 0.875000 0.625000
vt 0.625000 0.500000
vt 0.875000 0.500000
vt 0.125000 0.500000
vt 0.375000 0.500000
vt 0.375000 0.250000
vt 0.625000 0.500000
vt 0.625000 0.250000
vt 0.625000 0.625000
vt 0.625000 0.500000
vt 0.625000 0.500000
vt 0.625000 0.250000
vt 0.375000 0.625000
vt 0.375000 0.500000
vt 0.375000 0.750000
vt 0.875000 0.500000
vt 0.875000 0.500000
vt 0.375000 0.750000
vt 0.625000 0.625000
vt 0.625000 0.750000
vt 0.125000 0.500000
vt 0.125000 0.500000
vt 0.625000 0.250000
vt 0.375000 0.250000
vt 0.375000 0.250000
vn -0.9269 0.3753 0.0000
vn 0.0000 -0.0000 1.0000
vn 0.0000 0.0000 -1.0000
vn 0.0620 0.3698 0.9270
vn -0.0000 1.0000 0.0000
vn -0.9868 -0.1512 0.0577
vn -0.0022 1.0000 0.0000
vn 0.2423 0.9702 0.0000
vn 0.7464 0.6655 0.0000
vn 1.0000 0.0000 0.0000
vn -1.0000 0.0000 0.0000
vn -0.9269 -0.3753 0.0000
vn 0.0620 -0.3698 0.9270
vn -0.9868 0.1512 0.0577
vn -0.0022 -1.0000 0.0000
vn 0.2423 -0.9702 0.0000
vn 0.7464 -0.6655 0.0000
usemtl None
s off
f 7/1/1 8/2/1 2/3/1 1/4/1
f 13/5/2 15/6/2 33/7/2 29/8/2
f 10/9/2 4/10/2 24/11/2 26/12/2
f 7/13/3 9/14/3 3/15/3 35/16/3
f 10/9/4 8/17/4 36/18/4 4/10/4
f 6/19/2 2/20/2 8/17/2 10/9/2
f 1/21/3 5/22/3 9/14/3 7/13/3
f 4/10/5 3/15/5 18/23/5 17/24/5
f 35/25/6 36/26/6 8/2/6 7/1/6
f 12/27/7 11/28/7 14/29/7 13/5/7
f 15/6/8 16/30/8 17/24/8 18/23/8
f 13/5/9 14/29/9 16/30/9 15/6/9
f 6/19/2 10/9/2 26/12/2 22/31/2
f 1/4/5 2/3/5 11/28/5 12/27/5
f 14/29/3 11/28/3 31/32/3 32/33/3
f 9/14/3 5/22/3 19/34/3 25/35/3
f 3/15/3 9/14/3 25/35/3 27/36/3
f 21/37/7 22/31/7 32/33/7 31/38/7
f 25/35/9 19/34/9 29/8/9 33/7/9
f 27/36/8 25/35/8 33/7/8 28/39/8
f 26/12/8 24/11/8 23/40/8 34/41/8
f 22/31/9 26/12/9 34/41/9 32/33/9
f 19/34/7 20/42/7 30/43/7 29/8/7
f 17/24/3 16/30/3 34/41/3 23/40/3
f 18/23/10 3/15/10 27/36/10 28/39/10
f 11/28/11 2/3/11 21/44/11 31/32/11
f 5/22/3 1/21/3 20/42/3 19/34/3
f 1/4/11 12/27/11 30/45/11 20/46/11
f 15/6/2 18/23/2 28/39/2 33/7/2
f 2/20/2 6/19/2 22/31/2 21/37/2
f 16/30/3 14/29/3 32/33/3 34/41/3
f 4/10/10 17/24/10 23/40/10 24/11/10
f 12/27/2 13/5/2 29/8/2 30/45/2
f 41/47/12 37/48/12 38/49/12 42/50/12
f 47/51/2 61/52/2 65/53/2 49/54/2
f 44/55/2 58/56/2 56/57/2 4/10/2
f 41/58/3 35/16/3 3/15/3 43/59/3
f 44/55/13 4/10/13 36/18/13 42/60/13
f 40/61/2 44/55/2 42/60/2 38/62/2
f 37/63/3 41/58/3 43/59/3 39/64/3
f 35/25/14 41/47/14 42/50/14 36/26/14
f 46/65/15 47/51/15 48/66/15 45/67/15
f 49/54/16 18/23/16 17/24/16 50/68/16
f 47/51/17 49/54/17 50/68/17 48/66/17
f 40/61/2 54/69/2 58/56/2 44/55/2
f 37/48/2 46/65/2 45/67/2 38/49/2
f 48/66/3 64/70/3 63/71/3 45/67/3
f 43/59/3 57/72/3 51/73/3 39/64/3
f 3/15/3 59/74/3 57/72/3 43/59/3
f 53/75/15 63/76/15 64/70/15 54/69/15
f 57/72/17 65/53/17 61/52/17 51/73/17
f 59/74/16 60/77/16 65/53/16 57/72/16
f 58/56/16 66/78/16 55/79/16 56/57/16
f 54/69/17 64/70/17 66/78/17 58/56/17
f 51/73/15 61/52/15 62/80/15 52/81/15
f 17/24/3 55/79/3 66/78/3 50/68/3
f 18/23/10 60/77/10 59/74/10 3/15/10
f 45/67/11 63/71/11 53/82/11 38/49/11
f 39/64/3 51/73/3 52/81/3 37/63/3
f 37/48/11 52/83/11 62/84/11 46/65/11
f 49/54/2 65/53/2 60/77/2 18/23/2
f 38/62/2 53/75/2 54/69/2 40/61/2
f 50/68/3 66/78/3 64/70/3 48/66/3
f 4/10/10 56/57/10 55/79/10 17/24/10
f 46/65/2 62/84/2 61/52/2 47/51/2
o Right_Engine_Cylinder.001
v -1.772308 -0.073492 -0.064284
v -1.362249 -0.144254 -0.064285
v -1.772308 -0.078792 -0.118089
v -1.362249 -0.148194 -0.104284
v -1.772308 -0.094486 -0.169825
v -1.362249 -0.159861 -0.142746
v -1.772308 -0.119971 -0.217506
v -1.362249 -0.178808 -0.178193
v -1.772308 -0.154270 -0.259298
v -1.362249 -0.204306 -0.209262
v -1.772308 -0.196062 -0.293596
v -1.362249 -0.235375 -0.234760
v -1.772308 -0.243743 -0.319082
v -1.362249 -0.270822 -0.253707
v -1.772308 -0.295479 -0.334776
v -1.362249 -0.309284 -0.265374
v -1.772308 -0.349283 -0.340076
v -1.362249 -0.349283 -0.269314
v -1.772308 -0.403087 -0.334776
v -1.362249 -0.389282 -0.265374
v -1.772308 -0.454824 -0.319082
v -1.362249 -0.427745 -0.253707
v -1.772308 -0.502505 -0.293596
v -1.362249 -0.463191 -0.234760
v -1.772308 -0.544297 -0.259298
v -1.362249 -0.494261 -0.209262
v -1.772308 -0.578595 -0.217506
v -1.362249 -0.519759 -0.178193
v -1.772308 -0.604081 -0.169825
v -1.362249 -0.538706 -0.142746
v -1.772308 -0.619775 -0.118089
v -1.362249 -0.550373 -0.104284
v -1.772308 -0.625074 -0.064284
v -1.362249 -0.554313 -0.064285
v -1.772308 -0.619775 -0.010480
v -1.362249 -0.550373 -0.024285
v -1.772308 -0.604081 0.041256
v -1.362249 -0.538706 0.014177
v -1.772308 -0.578595 0.088937
v -1.362249 -0.519759 0.049624
v -1.772308 -0.544297 0.130729
v -1.362249 -0.494261 0.080693
v -1.772308 -0.502504 0.165027
v -1.362249 -0.463191 0.106191
v -1.772308 -0.454824 0.190513
v -1.362249 -0.427744 0.125138
v -1.772308 -0.403087 0.206207
v -1.362249 -0.389282 0.136805
v -1.772308 -0.349283 0.211506
v -1.362249 -0.349283 0.140745
v -1.772308 -0.295479 0.206207
v -1.362249 -0.309284 0.136805
v -1.772308 -0.243742 0.190513
v -1.362249 -0.270822 0.125138
v -1.772308 -0.196062 0.165027
v -1.362249 -0.235375 0.106191
v -1.772308 -0.154269 0.130729
v -1.362249 -0.204306 0.080693
v -1.772308 -0.119971 0.088936
v -1.362249 -0.178808 0.049623
v -1.772308 -0.094485 0.041256
v -1.362249 -0.159861 0.014176
v -1.772308 -0.078791 -0.010481
v -1.362249 -0.148194 -0.024286
vt 1.000000 0.500000
vt 1.000000 1.000000
vt 0.968750 1.000000
vt 0.968750 0.500000
vt 0.937500 1.000000
vt 0.937500 0.500000
vt 0.906250 1.000000
vt 0.906250 0.500000
vt 0.875000 1.000000
vt 0.875000 0.500000
vt 0.843750 1.000000
vt 0.843750 0.500000
vt 0.812500 1.000000
vt 0.812500 0.500000
vt 0.781250 1.000000
vt 0.781250 0.500000
vt 0.750000 1.000000
vt 0.750000 0.500000
vt 0.718750 1.000000
vt 0.718750 0.500000
vt 0.687500 1.000000
vt 0.687500 0.500000
vt 0.656250 1.000000
vt 0.656250 0.500000
vt 0.625000 1.000000
vt 0.625000 0.500000
vt 0.593750 1.000000
vt 0.593750 0.500000
vt 0.562500 1.000000
vt 0.562500 0.500000
vt 0.531250 1.000000
vt 0.531250 0.500000
vt 0.500000 1.000000
vt 0.500000 0.500000
vt 0.468750 1.000000
vt 0.468750 0.500000
vt 0.437500 1.000000
vt 0.437500 0.500000
vt 0.406250 1.000000
vt 0.406250 0.500000
vt 0.375000 1.000000
vt 0.375000 0.500000
vt 0.343750 1.000000
vt 0.343750 0.500000
vt 0.312500 1.000000
vt 0.312500 0.500000
vt 0.281250 1.000000
vt 0.281250 0.500000
vt 0.250000 1.000000
vt 0.250000 0.500000
vt 0.218750 1.000000
vt 0.218750 0.500000
vt 0.187500 1.000000
vt 0.187500 0.500000
vt 0.156250 1.000000
vt 0.156250 0.500000
vt 0.125000 1.000000
vt 0.125000 0.500000
vt 0.093750 1.000000
vt 0.093750 0.500000
vt 0.062500 1.000000
vt 0.062500 0.500000
vt 0.296822 0.485388
vt 0.250000 0.490000
vt 0.203179 0.485389
vt 0.158156 0.471731
vt 0.116663 0.449553
vt 0.080295 0.419706
vt 0.050447 0.383337
vt 0.028269 0.341844
vt 0.014612 0.296822
vt 0.010000 0.250000
vt 0.014611 0.203179
vt 0.028269 0.158156
vt 0.050447 0.116663
vt 0.080294 0.080294
vt 0.116663 0.050447
vt 0.158156 0.028269
vt 0.203178 0.014612
vt 0.250000 0.010000
vt 0.296822 0.014612
vt 0.341844 0.028269
vt 0.383337 0.050447
vt 0.419706 0.080294
vt 0.449553 0.116663
vt 0.471731 0.158156
vt 0.485388 0.203178
vt 0.490000 0.250000
vt 0.485388 0.296822
vt 0.471731 0.341844
vt 0.449553 0.383337
vt 0.419706 0.419706
vt 0.383337 0.449553
vt 0.341844 0.471731
vt 0.031250 1.000000
vt 0.031250 0.500000
vt 0.000000 1.000000
vt 0.000000 0.500000
vt 0.750000 0.490000
vt 0.796822 0.485388
vt 0.841844 0.471731
vt 0.883337 0.449553
vt 0.919706 0.419706
vt 0.949553 0.383337
vt 0.971731 0.341844
vt 0.985388 0.296822
vt 0.990000 0.250000
vt 0.985388 0.203178
vt 0.971731 0.158156
vt 0.949553 0.116663
vt 0.919706 0.080294
vt 0.883337 0.050447
vt 0.841844 0.028269
vt 0.796822 0.014612
vt 0.750000 0.010000
vt 0.703178 0.014612
vt 0.658156 0.028269
vt 0.616663 0.050447
vt 0.580294 0.080294
vt 0.550447 0.116663
vt 0.528269 0.158156
vt 0.514611 0.203179
vt 0.510000 0.250000
vt 0.514612 0.296822
vt 0.528269 0.341844
vt 0.550447 0.383337
vt 0.580295 0.419706
vt 0.616663 0.449553
vt 0.658156 0.471731
vt 0.703179 0.485389
vn 0.1693 0.9808 -0.0966
vn 0.1693 0.9431 -0.2861
vn 0.1693 0.8692 -0.4646
vn 0.1693 0.7619 -0.6252
vn 0.1693 0.6252 -0.7619
vn 0.1693 0.4646 -0.8692
vn 0.1693 0.2861 -0.9431
vn 0.1693 0.0966 -0.9808
vn 0.1693 -0.0966 -0.9808
vn 0.1693 -0.2861 -0.9431
vn 0.1693 -0.4646 -0.8692
vn 0.1693 -0.6252 -0.7619
vn 0.1693 -0.7619 -0.6252
vn 0.1693 -0.8692 -0.4646
vn 0.1693 -0.9431 -0.2861
vn 0.1693 -0.9808 -0.0966
vn 0.1693 -0.9808 0.0966
vn 0.1693 -0.9431 0.2861
vn 0.1693 -0.8692 0.4646
vn 0.1693 -0.7619 0.6252
vn 0.1693 -0.6252 0.7619
vn 0.1693 -0.4646 0.8692
vn 0.1693 -0.2861 0.9431
vn 0.1693 -0.0966 0.9808
vn 0.1693 0.0966 0.9808
vn 0.1693 0.2861 0.9431
vn 0.1693 0.4646 0.8692
vn 0.1693 0.6252 0.7619
vn 0.1693 0.7619 0.6252
vn 0.1693 0.8692 0.4646
vn 1.0000 0.0000 0.0000
vn 0.1693 0.9431 0.2861
vn 0.1693 0.9808 0.0966
vn -1.0000 0.0000 0.0000
usemtl None
s off
f 67/85/18 68/86/18 70/87/18 69/88/18
f 69/88/19 70/87/19 72/89/19 71/90/19
f 71/90/20 72/89/20 74/91/20 73/92/20
f 73/92/21 74/91/21 76/93/21 75/94/21
f 75/94/22 76/93/22 78/95/22 77/96/22
f 77/96/23 78/95/23 80/97/23 79/98/23
f 79/98/24 80/97/24 82/99/24 81/100/24
f 81/100/25 82/99/25 84/101/25 83/102/25
f 83/102/26 84/101/26 86/103/26 85/104/26
f 85/104/27 86/103/27 88/105/27 87/106/27
f 87/106/28 88/105/28 90/107/28 89/108/28
f 89/108/29 90/107/29 92/109/29 91/110/29
f 91/110/30 92/109/30 94/111/30 93/112/30
f 93/112/31 94/111/31 96/113/31 95/114/31
f 95/114/32 96/113/32 98/115/32 97/116/32
f 97/116/33 98/115/33 100/117/33 99/118/33
f 99/118/34 100/117/34 102/119/34 101/120/34
f 101/120/35 102/119/35 104/121/35 103/122/35
f 103/122/36 104/121/36 106/123/36 105/124/36
f 105/124/37 106/123/37 108/125/37 107/126/37
f 107/126/38 108/125/38 110/127/38 109/128/38
f 109/128/39 110/127/39 112/129/39 111/130/39
f 111/130/40 112/129/40 114/131/40 113/132/40
f 113/132/41 114/131/41 116/133/41 115/134/41
f 115/134/42 116/133/42 118/135/42 117/136/42
f 117/136/43 118/135/43 120/137/43 119/138/43
f 119/138/44 120/137/44 122/139/44 121/140/44
f 121/140/45 122/139/45 124/141/45 123/142/45
f 123/142/46 124/141/46 126/143/46 125/144/46
f 125/144/47 126/143/47 128/145/47 127/146/47
f 70/147/48 68/148/48 130/149/48 128/150/48 126/151/48 124/152/48 122/153/48 120/154/48 118/155/48 116/156/48 114/157/48 112/158/48 110/159/48 108/160/48 106/161/48 104/162/48 102/163/48 100/164/48 98/165/48 96/166/48 94/167/48 92/168/48 90/169/48 88/170/48 86/171/48 84/172/48 82/173/48 80/174/48 78/175/48 76/176/48 74/177/48 72/178/48
f 127/146/49 128/145/49 130/179/49 129/180/49
f 129/180/50 130/179/50 68/181/50 67/182/50
f 67/183/51 69/184/51 71/185/51 73/186/51 75/187/51 77/188/51 79/189/51 81/190/51 83/191/51 85/192/51 87/193/51 89/194/51 91/195/51 93/196/51 95/197/51 97/198/51 99/199/51 101/200/51 103/201/51 105/202/51 107/203/51 109/204/51 111/205/51 113/206/51 115/207/51 117/208/51 119/209/51 121/210/51 123/211/51 125/212/51 127/213/51 129/214/51
o Left_Engine_Cylinder.002
v -1.772308 0.626508 -0.064284
v -1.362249 0.555746 -0.064285
v -1.772308 0.621208 -0.118089
v -1.362249 0.551806 -0.104284
v -1.772308 0.605514 -0.169825
v -1.362249 0.540139 -0.142746
v -1.772308 0.580029 -0.217506
v -1.362249 0.521192 -0.178193
v -1.772308 0.545730 -0.259298
v -1.362249 0.495694 -0.209262
v -1.772308 0.503938 -0.293596
v -1.362249 0.464625 -0.234760
v -1.772308 0.456257 -0.319082
v -1.362249 0.429178 -0.253707
v -1.772308 0.404521 -0.334776
v -1.362249 0.390716 -0.265374
v -1.772308 0.350717 -0.340076
v -1.362249 0.350717 -0.269314
v -1.772308 0.296913 -0.334776
v -1.362249 0.310718 -0.265374
v -1.772308 0.245176 -0.319082
v -1.362249 0.272255 -0.253707
v -1.772308 0.197495 -0.293596
v -1.362249 0.236809 -0.234760
v -1.772308 0.155703 -0.259298
v -1.362249 0.205739 -0.209262
v -1.772308 0.121405 -0.217506
v -1.362249 0.180241 -0.178193
v -1.772308 0.095919 -0.169825
v -1.362249 0.161294 -0.142746
v -1.772308 0.080225 -0.118089
v -1.362249 0.149627 -0.104284
v -1.772308 0.074926 -0.064284
v -1.362249 0.145687 -0.064285
v -1.772308 0.080225 -0.010480
v -1.362249 0.149627 -0.024285
v -1.772308 0.095919 0.041256
v -1.362249 0.161294 0.014177
v -1.772308 0.121405 0.088937
v -1.362249 0.180241 0.049624
v -1.772308 0.155703 0.130729
v -1.362249 0.205739 0.080693
v -1.772308 0.197496 0.165027
v -1.362249 0.236809 0.106191
v -1.772308 0.245176 0.190513
v -1.362249 0.272256 0.125138
v -1.772308 0.296913 0.206207
v -1.362249 0.310718 0.136805
v -1.772308 0.350717 0.211506
v -1.362249 0.350717 0.140745
v -1.772308 0.404521 0.206207
v -1.362249 0.390716 0.136805
v -1.772308 0.456258 0.190513
v -1.362249 0.429178 0.125138
v -1.772308 0.503938 0.165027
v -1.362249 0.464625 0.106191
v -1.772308 0.545731 0.130729
v -1.362249 0.495694 0.080693
v -1.772308 0.580029 0.088936
v -1.362249 0.521192 0.049623
v -1.772308 0.605515 0.041256
v -1.362249 0.540139 0.014176
v -1.772308 0.621209 -0.010481
v -1.362249 0.551806 -0.024286
vt 1.000000 0.500000
vt 1.000000 1.000000
vt 0.968750 1.000000
vt 0.968750 0.500000
vt 0.937500 1.000000
vt 0.937500 0.500000
vt 0.906250 1.000000
vt 0.906250 0.500000
vt 0.875000 1.000000
vt 0.875000 0.500000
vt 0.843750 1.000000
vt 0.843750 0.500000
vt 0.812500 1.000000
vt 0.812500 0.500000
vt 0.781250 1.000000
vt 0.781250 0.500000
vt 0.750000 1.000000
vt 0.750000 0.500000
vt 0.718750 1.000000
vt 0.718750 0.500000
vt 0.687500 1.000000
vt 0.687500 0.500000
vt 0.656250 1.000000
vt 0.656250 0.500000
vt 0.625000 1.000000
vt 0.625000 0.500000
vt 0.593750 1.000000
vt 0.593750 0.500000
vt 0.562500 1.000000
vt 0.562500 0.500000
vt 0.531250 1.000000
vt 0.531250 0.500000
vt 0.500000 1.000000
vt 0.500000 0.500000
vt 0.468750 1.000000
vt 0.468750 0.500000
vt 0.437500 1.000000
vt 0.437500 0.500000
vt 0.406250 1.000000
vt 0.406250 0.500000
vt 0.375000 1.000000
vt 0.375000 0.500000
vt 0.343750 1.000000
vt 0.343750 0.500000
vt 0.312500 1.000000
vt 0.312500 0.500000
vt 0.281250 1.000000
vt 0.281250 0.500000
vt 0.250000 1.000000
vt 0.250000 0.500000
vt 0.218750 1.000000
vt 0.218750 0.500000
vt 0.187500 1.000000
vt 0.187500 0.500000
vt 0.156250 1.000000
vt 0.156250 0.500000
vt 0.125000 1.000000
vt 0.125000 0.500000
vt 0.093750 1.000000
vt 0.093750 0.500000
vt 0.062500 1.000000
vt 0.062500 0.500000
vt 0.296822 0.485388
vt 0.250000 0.490000
vt 0.203179 0.485389
vt 0.158156 0.471731
vt 0.116663 0.449553
vt 0.080295 0.419706
vt 0.050447 0.383337
vt 0.028269 0.341844
vt 0.014612 0.296822
vt 0.010000 0.250000
vt 0.014611 0.203179
vt 0.028269 0.158156
vt 0.050447 0.116663
vt 0.080294 0.080294
vt 0.116663 0.050447
vt 0.158156 0.028269
vt 0.203178 0.014612
vt 0.250000 0.010000
vt 0.296822 0.014612
vt 0.341844 0.028269
vt 0.383337 0.050447
vt 0.419706 0.080294
vt 0.449553 0.116663
vt 0.471731 0.158156
vt 0.485388 0.203178
vt 0.490000 0.250000
vt 0.485388 0.296822
vt 0.471731 0.341844
vt 0.449553 0.383337
vt 0.419706 0.419706
vt 0.383337 0.449553
vt 0.341844 0.471731
vt 0.031250 1.000000
vt 0.031250 0.500000
vt 0.000000 1.000000
vt 0.000000 0.500000
vt 0.750000 0.490000
vt 0.796822 0.485388
vt 0.841844 0.471731
vt 0.883337 0.449553
vt 0.919706 0.419706
vt 0.949553 0.383337
vt 0.971731 0.341844
vt 0.985388 0.296822
vt 0.990000 0.250000
vt 0.985388 0.203178
vt 0.971731 0.158156
vt 0.949553 0.116663
vt 0.919706 0.080294
vt 0.883337 0.050447
vt 0.841844 0.028269
vt 0.796822 0.014612
vt 0.750000 0.010000
vt 0.703178 0.014612
vt 0.658156 0.028269
vt 0.616663 0.050447
vt 0.580294 0.080294
vt 0.550447 0.116663
vt 0.528269 0.158156
vt 0.514611 0.203179
vt 0.510000 0.250000
vt 0.514612 0.296822
vt 0.528269 0.341844
vt 0.550447 0.383337
vt 0.580295 0.419706
vt 0.616663 0.449553
vt 0.658156 0.471731
vt 0.703179 0.485389
vn 0.1693 0.9808 -0.0966
vn 0.1693 0.9431 -0.2861
vn 0.1693 0.8692 -0.4646
vn 0.1693 0.7619 -0.6252
vn 0.1693 0.6252 -0.7619
vn 0.1693 0.4646 -0.8692
vn 0.1693 0.2861 -0.9431
vn 0.1693 0.0966 -0.9808
vn 0.1693 -0.0966 -0.9808
vn 0.1693 -0.2861 -0.9431
vn 0.1693 -0.4646 -0.8692
vn 0.1693 -0.6252 -0.7619
vn 0.1693 -0.7619 -0.6252
vn 0.1693 -0.8692 -0.4646
vn 0.1693 -0.9431 -0.2861
vn 0.1693 -0.9808 -0.0966
vn 0.1693 -0.9808 0.0966
vn 0.1693 -0.9431 0.2861
vn 0.1693 -0.8692 0.4646
vn 0.1693 -0.7619 0.6252
vn 0.1693 -0.6252 0.7619
vn 0.1693 -0.4646 0.8692
vn 0.1693 -0.2861 0.9431
vn 0.1693 -0.0966 0.9808
vn 0.1693 0.0966 0.9808
vn 0.1693 0.2861 0.9431
vn 0.1693 0.4646 0.8692
vn 0.1693 0.6252 0.7619
vn 0.1693 0.7619 0.6252
vn 0.1693 0.8692 0.4646
vn 1.0000 0.0000 0.0000
vn 0.1693 0.9431 0.2861
vn 0.1693 0.9808 0.0966
vn -1.0000 0.0000 0.0000
usemtl None
s off
f 131/215/52 132/216/52 134/217/52 133/218/52
f 133/218/53 134/217/53 136/219/53 135/220/53
f 135/220/54 136/219/54 138/221/54 137/222/54
f 137/222/55 138/221/55 140/223/55 139/224/55
f 139/224/56 140/223/56 142/225/56 141/226/56
f 141/226/57 142/225/57 144/227/57 143/228/57
f 143/228/58 144/227/58 146/229/58 145/230/58
f 145/230/59 146/229/59 148/231/59 147/232/59
f 147/232/60 148/231/60 150/233/60 149/234/60
f 149/234/61 150/233/61 152/235/61 151/236/61
f 151/236/62 152/235/62 154/237/62 153/238/62
f 153/238/63 154/237/63 156/239/63 155/240/63
f 155/240/64 156/239/64 158/241/64 157/242/64
f 157/242/65 158/241/65 160/243/65 159/244/65
f 159/244/66 160/243/66 162/245/66 161/246/66
f 161/246/67 162/245/67 164/247/67 163/248/67
f 163/248/68 164/247/68 166/249/68 165/250/68
f 165/250/69 166/249/69 168/251/69 167/252/69
f 167/252/70 168/251/70 170/253/70 169/254/70
f 169/254/71 170/253/71 172/255/71 171/256/71
f 171/256/72 172/255/72 174/257/72 173/258/72
f 173/258/73 174/257/73 176/259/73 175/260/73
f 175/260/74 176/259/74 178/261/74 177/262/74
f 177/262/75 178/261/75 180/263/75 179/264/75
f 179/264/76 180/263/76 182/265/76 181/266/76
f 181/266/77 182/265/77 184/267/77 183/268/77
f 183/268/78 184/267/78 186/269/78 185/270/78
f 185/270/79 186/269/79 188/271/79 187/272/79
f 187/272/80 188/271/80 190/273/80 189/274/80
f 189/274/81 190/273/81 192/275/81 191/276/81
f 134/277/82 132/278/82 194/279/82 192/280/82 190/281/82 188/282/82 186/283/82 184/284/82 182/285/82 180/286/82 178/287/82 176/288/82 174/289/82 172/290/82 170/291/82 168/292/82 166/293/82 164/294/82 162/295/82 160/296/82 158/297/82 156/298/82 154/299/82 152/300/82 150/301/82 148/302/82 146/303/82 144/304/82 142/305/82 140/306/82 138/307/82 136/308/82
f 191/276/83 192/275/83 194/309/83 193/310/83
f 193/310/84 194/309/84 132/311/84 131/312/84
f 131/313/85 133/314/85 135/315/85 137/316/85 139/317/85 141/318/85 143/319/85 145/320/85 147/321/85 149/322/85 151/323/85 153/324/85 155/325/85 157/326/85 159/327/85 161/328/85 163/329/85 165/330/85 167/331/85 169/332/85 171/333/85 173/334/85 175/335/85 177/336/85 179/337/85 181/338/85 183/339/85 185/340/85 187/341/85 189/342/85 191/343/85 193/344/85
