# Blender v2.80 (sub 75) OBJ File: 'PlayerShip.blend'
# www.blender.org
mtllib PlayerShip.mtl
o Cube_Cube.001
v -2.145599 -0.309340 -1.711229
v -2.145599 0.309340 -1.711229
v 2.485005 -0.309340 0.000000
v 2.485005 0.309340 0.000000
v -1.634919 -0.309340 -1.712357
v -1.634919 0.309340 -1.712357
v -2.500000 -0.309340 -0.835925
v -2.500000 0.309340 -0.835925
v -0.850936 -0.309340 -0.833006
v -0.850936 0.309340 -0.833006
v -2.145599 0.188645 -1.711229
v -2.145599 -0.188645 -1.711229
v -1.634919 -0.188645 -1.712357
v -1.634919 0.188645 -1.712357
v -0.850936 -0.188645 -0.833006
v -0.850936 0.188645 -0.833006
v 2.485005 0.188645 0.000000
v 2.485005 -0.188645 0.000000
v -1.634919 -0.309340 -1.786314
v -2.145599 -0.309340 -1.785186
v -2.145599 0.309340 -1.785186
v -1.634919 0.309340 -1.786314
v 2.485005 0.188645 -0.073957
v 2.485005 0.309340 -0.073957
v -0.850936 -0.309340 -0.906963
v -0.850936 0.309340 -0.906963
v 2.485005 -0.309340 -0.073957
v 2.485005 -0.188645 -0.073957
v -1.634919 -0.188645 -1.786314
v -2.145599 -0.188645 -1.785186
v -2.145599 0.188645 -1.785186
v -1.634919 0.188645 -1.786314
v -0.850936 -0.188645 -0.906963
v -0.850936 0.188645 -0.906963
v -2.500000 -0.309340 0.000000
v -2.500000 0.739300 0.000000
v -2.145599 -0.309340 1.711229
v -2.145599 0.309340 1.711229
v -1.634919 -0.309340 1.712357
v -1.634919 0.309340 1.712357
v -2.500000 -0.309340 0.835925
v -2.500000 0.309340 0.835925
v -0.850936 -0.309340 0.833006
v -0.850936 0.309340 0.833006
v -2.145599 0.188645 1.711229
v -2.145599 -0.188645 1.711229
v -1.634919 -0.188645 1.712357
v -1.634919 0.188645 1.712357
v -0.850936 -0.188645 0.833006
v -0.850936 0.188645 0.833006
v -1.634919 -0.309340 1.786314
v -2.145599 -0.309340 1.785186
v -2.145599 0.309340 1.785186
v -1.634919 0.309340 1.786314
v 2.485005 0.188645 0.073957
v 2.485005 0.309340 0.073957
v -0.850936 -0.309340 0.906963
v -0.850936 0.309340 0.906963
v 2.485005 -0.309340 0.073957
v 2.485005 -0.188645 0.073957
v -1.634919 -0.188645 1.786314
v -2.145599 -0.188645 1.785186
v -2.145599 0.188645 1.785186
v -1.634919 0.188645 1.786314
v -0.850936 -0.188645 0.906963
v -0.850936 0.188645 0.906963
vt 0.375000 0.125000
vt 0.625000 0.125000
vt 0.625000 0.250000
vt 0.375000 0.250000
vt 0.375000 0.500000
vt 0.375000 0.625000
vt 0.375000 0.625000
vt 0.375000 0.500000
vt 0.625000 0.625000
vt 0.625000 0.750000
vt 0.625000 0.750000
vt 0.625000 0.625000
vt 0.375000 0.750000
vt 0.625000 1.000000
vt 0.375000 1.000000
vt 0.125000 0.625000
vt 0.375000 0.625000
vt 0.125000 0.750000
vt 0.875000 0.625000
vt 0.875000 0.750000
vt 0.625000 0.500000
vt 0.875000 0.500000
vt 0.125000 0.500000
vt 0.375000 0.500000
vt 0.375000 0.750000
vt 0.625000 0.750000
vt 0.375000 0.000000
vt 0.625000 0.000000
vt 0.375000 0.250000
vt 0.625000 0.250000
vt 0.625000 0.500000
vt 0.625000 0.625000
vt 0.625000 0.500000
vt 0.625000 0.250000
vt 0.625000 0.500000
vt 0.375000 0.500000
vt 0.375000 0.625000
vt 0.375000 0.750000
vt 0.875000 0.500000
vt 0.875000 0.500000
vt 0.375000 0.750000
vt 0.625000 0.750000
vt 0.625000 0.625000
vt 0.125000 0.500000
vt 0.125000 0.500000
vt 0.625000 0.250000
vt 0.375000 0.250000
vt 0.375000 0.250000
vt 0.375000 0.125000
vt 0.625000 0.125000
vt 0.625000 0.250000
vt 0.375000 0.250000
vt 0.375000 0.500000
vt 0.375000 0.625000
vt 0.375000 0.625000
vt 0.375000 0.500000
vt 0.625000 0.625000
vt 0.625000 0.750000
vt 0.625000 0.625000
vt 0.125000 0.625000
vt 0.375000 0.625000
vt 0.875000 0.625000
vt 0.625000 0.500000
vt 0.875000 0.500000
vt 0.125000 0.500000
vt 0.375000 0.500000
vt 0.375000 0.250000
vt 0.625000 0.250000
vt 0.625000 0.500000
vt 0.625000 0.625000
vt 0.625000 0.500000
vt 0.625000 0.250000
vt 0.625000 0.500000
vt 0.375000 0.500000
vt 0.375000 0.625000
vt 0.375000 0.750000
vt 0.875000 0.500000
vt 0.875000 0.500000
vt 0.375000 0.750000
vt 0.625000 0.750000
vt 0.625000 0.625000
vt 0.125000 0.500000
vt 0.125000 0.500000
vt 0.625000 0.250000
vt 0.375000 0.250000
vt 0.375000 0.250000
vn -0.9269 0.0000 -0.3753
vn 0.0000 1.0000 0.0000
vn 0.0000 0.0000 1.0000
vn 0.0000 -1.0000 0.0000
vn 0.0605 0.9307 -0.3607
vn -1.0000 0.0000 0.0000
vn -0.0022 0.0000 -1.0000
vn 0.2423 0.0000 -0.9702
vn 0.7464 0.0000 -0.6655
vn 1.0000 0.0000 0.0000
vn 0.9269 0.0000 -0.3753
vn -0.0605 -0.9307 -0.3607
vn 0.0022 0.0000 -1.0000
vn -0.2423 0.0000 -0.9702
vn -0.7464 0.0000 -0.6655
usemtl None
s off
f 7/1/1 8/2/1 2/3/1 1/4/1
f 13/5/2 15/6/2 33/7/2 29/8/2
f 10/9/2 4/10/2 24/11/2 26/12/2
f 3/13/3 4/10/3 36/14/3 35/15/3
f 7/16/4 9/17/4 3/13/4 35/18/4
f 10/9/5 8/19/5 36/20/5 4/10/5
f 6/21/2 2/22/2 8/19/2 10/9/2
f 1/23/4 5/24/4 9/17/4 7/16/4
f 4/10/3 3/13/3 18/25/3 17/26/3
f 35/27/6 36/28/6 8/2/6 7/1/6
f 12/29/7 11/30/7 14/31/7 13/5/7
f 15/6/8 16/32/8 17/26/8 18/25/8
f 13/5/9 14/31/9 16/32/9 15/6/9
f 6/21/2 10/9/2 26/12/2 22/33/2
f 1/4/6 2/3/6 11/30/6 12/29/6
f 14/31/4 11/30/4 31/34/4 32/35/4
f 9/17/4 5/24/4 19/36/4 25/37/4
f 3/13/4 9/17/4 25/37/4 27/38/4
f 21/39/7 22/33/7 32/35/7 31/40/7
f 25/37/9 19/36/9 29/8/9 33/7/9
f 27/38/8 25/37/8 33/7/8 28/41/8
f 26/12/8 24/11/8 23/42/8 34/43/8
f 22/33/9 26/12/9 34/43/9 32/35/9
f 19/36/7 20/44/7 30/45/7 29/8/7
f 17/26/4 16/32/4 34/43/4 23/42/4
f 18/25/10 3/13/10 27/38/10 28/41/10
f 11/30/6 2/3/6 21/46/6 31/34/6
f 5/24/4 1/23/4 20/44/4 19/36/4
f 1/4/6 12/29/6 30/47/6 20/48/6
f 15/6/2 18/25/2 28/41/2 33/7/2
f 2/22/2 6/21/2 22/33/2 21/39/2
f 16/32/4 14/31/4 32/35/4 34/43/4
f 4/10/10 17/26/10 23/42/10 24/11/10
f 12/29/2 13/5/2 29/8/2 30/47/2
f 41/49/11 42/50/11 38/51/11 37/52/11
f 47/53/4 49/54/4 65/55/4 61/56/4
f 44/57/4 4/10/4 56/58/4 58/59/4
f 41/60/2 43/61/2 3/13/2 35/18/2
f 44/57/12 42/62/12 36/20/12 4/10/12
f 40/63/4 38/64/4 42/62/4 44/57/4
f 37/65/2 39/66/2 43/61/2 41/60/2
f 35/27/10 36/28/10 42/50/10 41/49/10
f 46/67/13 45/68/13 48/69/13 47/53/13
f 49/54/14 50/70/14 17/26/14 18/25/14
f 47/53/15 48/69/15 50/70/15 49/54/15
f 40/63/4 44/57/4 58/59/4 54/71/4
f 37/52/3 38/51/3 45/68/3 46/67/3
f 48/69/2 45/68/2 63/72/2 64/73/2
f 43/61/2 39/66/2 51/74/2 57/75/2
f 3/13/2 43/61/2 57/75/2 59/76/2
f 53/77/13 54/71/13 64/73/13 63/78/13
f 57/75/15 51/74/15 61/56/15 65/55/15
f 59/76/14 57/75/14 65/55/14 60/79/14
f 58/59/14 56/58/14 55/80/14 66/81/14
f 54/71/15 58/59/15 66/81/15 64/73/15
f 51/74/13 52/82/13 62/83/13 61/56/13
f 17/26/2 50/70/2 66/81/2 55/80/2
f 18/25/6 3/13/6 59/76/6 60/79/6
f 45/68/10 38/51/10 53/84/10 63/72/10
f 39/66/2 37/65/2 52/82/2 51/74/2
f 37/52/10 46/67/10 62/85/10 52/86/10
f 49/54/4 18/25/4 60/79/4 65/55/4
f 38/64/4 40/63/4 54/71/4 53/77/4
f 50/70/2 48/69/2 64/73/2 66/81/2
f 4/10/6 17/26/6 55/80/6 56/58/6
f 46/67/4 47/53/4 61/56/4 62/85/4
